<mxfile host="Electron" modified="2023-06-14T23:20:54.044Z" agent="Mozilla/5.0 (Macintosh; Intel Mac OS X 10_15_7) AppleWebKit/537.36 (KHTML, like Gecko) draw.io/21.4.0 Chrome/112.0.5615.204 Electron/24.5.1 Safari/537.36" etag="enSlDKH9DUfC1IVmUsPQ" version="21.4.0" type="device">
  <diagram name="Page-1" id="DmJNDeHQz-LHip2XEGIp">
    <mxGraphModel dx="1114" dy="894" grid="1" gridSize="10" guides="1" tooltips="1" connect="1" arrows="1" fold="1" page="1" pageScale="1" pageWidth="850" pageHeight="1100" math="0" shadow="0">
      <root>
        <mxCell id="0" />
        <mxCell id="1" parent="0" />
        <mxCell id="uKrT4ACTO5Kj97bMBYle-2" value="PREV_OP1" style="rounded=1;whiteSpace=wrap;html=1;arcSize=5;fontFamily=SF Mono;fillColor=#CCFFFF;" vertex="1" parent="1">
          <mxGeometry x="430" y="240" width="80" height="70" as="geometry" />
        </mxCell>
        <mxCell id="uKrT4ACTO5Kj97bMBYle-3" value="Code" style="text;html=1;strokeColor=none;fillColor=none;align=center;verticalAlign=middle;whiteSpace=wrap;rounded=0;fontFamily=SF Mono;" vertex="1" parent="1">
          <mxGeometry x="440" y="200" width="60" height="30" as="geometry" />
        </mxCell>
        <mxCell id="uKrT4ACTO5Kj97bMBYle-4" value="PC" style="text;html=1;strokeColor=none;fillColor=none;align=center;verticalAlign=middle;whiteSpace=wrap;rounded=0;fontFamily=SF Mono;" vertex="1" parent="1">
          <mxGeometry x="350" y="210" width="60" height="30" as="geometry" />
        </mxCell>
        <mxCell id="uKrT4ACTO5Kj97bMBYle-5" value="PREV_OP2" style="rounded=1;whiteSpace=wrap;html=1;arcSize=5;fontFamily=SF Mono;fillColor=#CCFFFF;" vertex="1" parent="1">
          <mxGeometry x="430" y="310" width="80" height="70" as="geometry" />
        </mxCell>
        <mxCell id="uKrT4ACTO5Kj97bMBYle-6" value="LOAD_a" style="rounded=1;whiteSpace=wrap;html=1;arcSize=5;fontFamily=SF Mono;fillColor=#CCFFFF;" vertex="1" parent="1">
          <mxGeometry x="640" y="380" width="80" height="70" as="geometry" />
        </mxCell>
        <mxCell id="uKrT4ACTO5Kj97bMBYle-7" value="LOAD_b" style="rounded=1;whiteSpace=wrap;html=1;arcSize=5;fontFamily=SF Mono;fillColor=#CCFFFF;" vertex="1" parent="1">
          <mxGeometry x="640" y="450" width="80" height="70" as="geometry" />
        </mxCell>
        <mxCell id="uKrT4ACTO5Kj97bMBYle-8" value="ADD" style="rounded=1;whiteSpace=wrap;html=1;arcSize=5;fontFamily=SF Mono;fillColor=#CCFFFF;" vertex="1" parent="1">
          <mxGeometry x="640" y="520" width="80" height="70" as="geometry" />
        </mxCell>
        <mxCell id="uKrT4ACTO5Kj97bMBYle-9" value="NEXT_OP1" style="rounded=1;whiteSpace=wrap;html=1;arcSize=5;fontFamily=SF Mono;fillColor=#CCFFFF;" vertex="1" parent="1">
          <mxGeometry x="430" y="590" width="80" height="70" as="geometry" />
        </mxCell>
        <mxCell id="uKrT4ACTO5Kj97bMBYle-10" value="NEXT_OP2" style="rounded=1;whiteSpace=wrap;html=1;arcSize=5;fontFamily=SF Mono;fillColor=#CCFFFF;" vertex="1" parent="1">
          <mxGeometry x="430" y="660" width="80" height="70" as="geometry" />
        </mxCell>
        <mxCell id="uKrT4ACTO5Kj97bMBYle-11" value="" style="endArrow=classic;html=1;rounded=0;" edge="1" parent="1">
          <mxGeometry width="50" height="50" relative="1" as="geometry">
            <mxPoint x="330" y="240" as="sourcePoint" />
            <mxPoint x="420" y="240" as="targetPoint" />
          </mxGeometry>
        </mxCell>
        <mxCell id="uKrT4ACTO5Kj97bMBYle-12" value="Add" style="text;html=1;strokeColor=none;fillColor=none;align=center;verticalAlign=middle;whiteSpace=wrap;rounded=0;fontFamily=SF Mono;" vertex="1" parent="1">
          <mxGeometry x="650" y="350" width="60" height="30" as="geometry" />
        </mxCell>
        <mxCell id="uKrT4ACTO5Kj97bMBYle-13" value="" style="endArrow=classic;html=1;rounded=0;" edge="1" parent="1">
          <mxGeometry width="50" height="50" relative="1" as="geometry">
            <mxPoint x="530" y="380" as="sourcePoint" />
            <mxPoint x="620" y="380" as="targetPoint" />
          </mxGeometry>
        </mxCell>
        <mxCell id="uKrT4ACTO5Kj97bMBYle-14" value="" style="endArrow=classic;html=1;rounded=0;" edge="1" parent="1">
          <mxGeometry width="50" height="50" relative="1" as="geometry">
            <mxPoint x="620" y="589" as="sourcePoint" />
            <mxPoint x="530" y="589" as="targetPoint" />
          </mxGeometry>
        </mxCell>
      </root>
    </mxGraphModel>
  </diagram>
</mxfile>
